<svg xmlns:xlink="http://www.w3.org/1999/xlink" version="1.1" xmlns="http://www.w3.org/2000/svg" viewBox="0 0 600 400">
    <g data-z-index="3">
        <g data-z-index="0.1" opacity="1" transform="translate(10,10) scale(1 1)">
            <path fill="rgb(35,100,170)" fill-opacity="0.5"
                d="M 5.6862745098039 235.12052221153002 C 5.6862745098039 235.12052221153002 19.901960784313562 224.90278024542917 29.37908496732 220.2380929023466 C 38.8562091503268 215.57340555926385 43.5947712418302 211.79708549611672 53.071895424837 211.79708549611672 C 62.5490196078434 211.79708549611672 67.2875816993466 219.28112571928295 76.764705882353 223.81305237384683 C 86.24183006535979 228.3449790284109 90.98039215686319 234.4567187689366 100.45751633987 234.4567187689366 C 109.934640522878 234.4567187689366 114.67320261438199 228.41861633648 124.15032679739 228.41861633648 C 133.627450980394 228.41861633648 138.366013071896 247.77349005282875 147.8431372549 247.77349005282875 C 157.320261437908 247.77349005282875 162.058823529412 244.58540186279313 171.53594771242 244.58540186279313 C 181.013071895424 244.58540186279313 185.751633986926 250.3757560252334 195.22875816993 250.3757560252334 C 204.70588235293798 250.3757560252334 209.44444444444198 226.0851101218209 218.92156862745 226.0851101218209 C 228.398692810458 226.0851101218209 233.13725490196202 233.0236071807813 242.61437908497 234.3716946351632 C 252.091503267974 235.7197820895451 256.83006535947595 234.3716946351632 266.30718954248 235.7197820895451 C 275.784313725488 237.067869543927 280.52287581699204 261.8497639509221 290 261.8497639509221 C 299.47712418300796 261.8497639509221 304.215686274512 261.8497639509221 313.69281045752 255.2219794126428 C 323.16993464052405 248.5941948743635 327.90849673202604 234.3220496960453 337.38562091503 217.8951595950324 C 346.86274509803803 201.4682694940125 351.601307189542 190.5229551490664 361.07843137255 173.08752890756088 C 370.55555555555804 155.65210266605538 375.294117647062 134.8073336805387 384.77124183007 130.7180283875048 C 394.24836601307396 126.6287230944709 398.98692810457595 128.30967402124716 408.46405228758 126.6287230944709 C 417.941176470588 124.94777216769394 422.679738562092 122.31327375362179 432.1568627451 122.31327375362179 C 441.63398692810404 122.31327375362179 446.37254901960597 122.31327375362179 455.84967320261 125.46268911681963 C 465.326797385618 128.61210448001748 470.065359477122 141.7201294675335 479.54248366013 141.7201294675335 C 489.019607843138 141.7201294675335 493.75816993464207 125.06998122121733 503.23529411765 109.01999667320831 C 512.712418300654 92.97001212520604 517.450980392156 61.47020672750523 526.92810457516 61.47020672750523 C 536.405228758168 61.47020672750523 541.1437908496721 74.23270893268341 550.62091503268 74.23270893268341 C 560.098039215688 74.23270893268341 574.3137254902 32.04714332285204 574.3137254902 32.04714332285204 L 574.3137254902 214 C 574.3137254902 214 560.098039215688 214 550.62091503268 214 C 541.1437908496721 214 536.405228758168 214 526.92810457516 214 C 517.450980392156 214 512.712418300654 214 503.23529411765 214 C 493.75816993464207 214 489.019607843138 214 479.54248366013 214 C 470.065359477122 214 465.326797385618 214 455.84967320261 214 C 446.37254901960597 214 441.63398692810404 214 432.1568627451 214 C 422.679738562092 214 417.941176470588 214 408.46405228758 214 C 398.98692810457595 214 394.24836601307396 214 384.77124183007 214 C 375.294117647062 214 370.55555555555804 214 361.07843137255 214 C 351.601307189542 214 346.86274509803803 214 337.38562091503 214 C 327.90849673202604 214 323.16993464052405 214 313.69281045752 214 C 304.215686274512 214 299.47712418300796 214 290 214 C 280.52287581699204 214 275.784313725488 214 266.30718954248 214 C 256.83006535947595 214 252.091503267974 214 242.61437908497 214 C 233.13725490196202 214 228.398692810458 214 218.92156862745 214 C 209.44444444444198 214 204.70588235293798 214 195.22875816993 214 C 185.751633986926 214 181.013071895424 214 171.53594771242 214 C 162.058823529412 214 157.320261437908 214 147.8431372549 214 C 138.366013071896 214 133.627450980394 214 124.15032679739 214 C 114.67320261438199 214 109.934640522878 214 100.45751633987 214 C 90.98039215686319 214 86.24183006535979 214 76.764705882353 214 C 67.2875816993466 214 62.5490196078434 214 53.071895424837 214 C 43.5947712418302 214 38.8562091503268 214 29.37908496732 214 C 19.901960784313562 214 5.6862745098039 214 5.6862745098039 214"
                class="highcharts-area" data-z-index="0"></path>
            <path fill="none"
                d="M 5.6862745098039 235.12052221153002 C 5.6862745098039 235.12052221153002 19.901960784313562 224.90278024542917 29.37908496732 220.2380929023466 C 38.8562091503268 215.57340555926385 43.5947712418302 211.79708549611672 53.071895424837 211.79708549611672 C 62.5490196078434 211.79708549611672 67.2875816993466 219.28112571928295 76.764705882353 223.81305237384683 C 86.24183006535979 228.3449790284109 90.98039215686319 234.4567187689366 100.45751633987 234.4567187689366 C 109.934640522878 234.4567187689366 114.67320261438199 228.41861633648 124.15032679739 228.41861633648 C 133.627450980394 228.41861633648 138.366013071896 247.77349005282875 147.8431372549 247.77349005282875 C 157.320261437908 247.77349005282875 162.058823529412 244.58540186279313 171.53594771242 244.58540186279313 C 181.013071895424 244.58540186279313 185.751633986926 250.3757560252334 195.22875816993 250.3757560252334 C 204.70588235293798 250.3757560252334 209.44444444444198 226.0851101218209 218.92156862745 226.0851101218209 C 228.398692810458 226.0851101218209 233.13725490196202 233.0236071807813 242.61437908497 234.3716946351632 C 252.091503267974 235.7197820895451 256.83006535947595 234.3716946351632 266.30718954248 235.7197820895451 C 275.784313725488 237.067869543927 280.52287581699204 261.8497639509221 290 261.8497639509221 C 299.47712418300796 261.8497639509221 304.215686274512 261.8497639509221 313.69281045752 255.2219794126428 C 323.16993464052405 248.5941948743635 327.90849673202604 234.3220496960453 337.38562091503 217.8951595950324 C 346.86274509803803 201.4682694940125 351.601307189542 190.5229551490664 361.07843137255 173.08752890756088 C 370.55555555555804 155.65210266605538 375.294117647062 134.8073336805387 384.77124183007 130.7180283875048 C 394.24836601307396 126.6287230944709 398.98692810457595 128.30967402124716 408.46405228758 126.6287230944709 C 417.941176470588 124.94777216769394 422.679738562092 122.31327375362179 432.1568627451 122.31327375362179 C 441.63398692810404 122.31327375362179 446.37254901960597 122.31327375362179 455.84967320261 125.46268911681963 C 465.326797385618 128.61210448001748 470.065359477122 141.7201294675335 479.54248366013 141.7201294675335 C 489.019607843138 141.7201294675335 493.75816993464207 125.06998122121733 503.23529411765 109.01999667320831 C 512.712418300654 92.97001212520604 517.450980392156 61.47020672750523 526.92810457516 61.47020672750523 C 536.405228758168 61.47020672750523 541.1437908496721 74.23270893268341 550.62091503268 74.23270893268341 C 560.098039215688 74.23270893268341 574.3137254902 32.04714332285204 574.3137254902 32.04714332285204"
                class="highcharts-graph" data-z-index="1" stroke="#2364AA" stroke-width="2" stroke-linejoin="round"
                stroke-linecap="round"></path>
        </g>
        <g data-z-index="0.1" opacity="1" transform="translate(10,10) scale(1 1)">
            <path fill="rgb(61,165,217)" fill-opacity="0.5"
                d="M 5.6862745098039 178.31707592128376 C 5.6862745098039 178.31707592128376 19.901960784313562 174.3545172734752 29.37908496732 174.3545172734752 C 38.8562091503268 174.3545172734752 43.5947712418302 187.96335132954044 53.071895424837 187.96335132954044 C 62.5490196078434 187.96335132954044 67.2875816993466 177.15073151602877 76.764705882353 162.6587323096312 C 86.24183006535979 148.16673310323304 90.98039215686319 115.50335529755114 100.45751633987 115.50335529755114 C 109.934640522878 115.50335529755114 114.67320261438199 127.60726583425456 124.15032679739 136.1141626298818 C 133.627450980394 144.62105942550548 138.366013071896 152.7003701010607 147.8431372549 158.03783927567846 C 157.320261437908 163.37530845029622 162.058823529412 158.03783927567846 171.53594771242 163.37530845029622 C 181.013071895424 168.71277762491397 185.751633986926 180.72744847539485 195.22875816993 191.22734138431375 C 204.70588235293798 201.72723429323707 209.44444444444198 215.87477299490175 218.92156862745 215.87477299490175 C 228.398692810458 215.87477299490175 233.13725490196202 194.59527453068475 242.61437908497 187.22369702641737 C 252.091503267974 179.8521195221531 256.83006535947595 179.0168854735726 266.30718954248 179.0168854735726 C 275.784313725488 179.0168854735726 280.52287581699204 190.10894961477726 290 190.10894961477726 C 299.47712418300796 190.10894961477726 304.215686274512 133.7621725714143 313.69281045752 133.7621725714143 C 323.16993464052405 133.7621725714143 327.90849673202604 145.37164927037142 337.38562091503 154.13135673088965 C 346.86274509803803 162.8910641914116 351.601307189542 164.31808179935845 361.07843137255 177.5607098740148 C 370.55555555555804 190.80333794867116 375.294117647062 220.34449710417144 384.77124183007 220.34449710417144 C 394.24836601307396 220.34449710417144 398.98692810457595 210.91151766220906 408.46405228758 210.91151766220906 C 417.941176470588 210.91151766220906 422.679738562092 213.62100623109137 432.1568627451 213.62100623109137 C 441.63398692810404 213.62100623109137 446.37254901960597 197.66673172735312 455.84967320261 197.66673172735312 C 465.326797385618 197.66673172735312 470.065359477122 213.93708133756624 479.54248366013 213.93708133756624 C 489.019607843138 213.93708133756624 493.75816993464207 175.05697766886155 503.23529411765 161.26012302921694 C 512.712418300654 147.46326838957813 517.450980392156 148.80472005733037 526.92810457516 144.95280813935773 C 536.405228758168 141.10089622138509 541.1437908496721 144.95280813935773 550.62091503268 141.10089622138509 C 560.098039215688 137.24898430341244 574.3137254902 118.99505422606359 574.3137254902 118.99505422606359 L 574.3137254902 214 C 574.3137254902 214 560.098039215688 214 550.62091503268 214 C 541.1437908496721 214 536.405228758168 214 526.92810457516 214 C 517.450980392156 214 512.712418300654 214 503.23529411765 214 C 493.75816993464207 214 489.019607843138 214 479.54248366013 214 C 470.065359477122 214 465.326797385618 214 455.84967320261 214 C 446.37254901960597 214 441.63398692810404 214 432.1568627451 214 C 422.679738562092 214 417.941176470588 214 408.46405228758 214 C 398.98692810457595 214 394.24836601307396 214 384.77124183007 214 C 375.294117647062 214 370.55555555555804 214 361.07843137255 214 C 351.601307189542 214 346.86274509803803 214 337.38562091503 214 C 327.90849673202604 214 323.16993464052405 214 313.69281045752 214 C 304.215686274512 214 299.47712418300796 214 290 214 C 280.52287581699204 214 275.784313725488 214 266.30718954248 214 C 256.83006535947595 214 252.091503267974 214 242.61437908497 214 C 233.13725490196202 214 228.398692810458 214 218.92156862745 214 C 209.44444444444198 214 204.70588235293798 214 195.22875816993 214 C 185.751633986926 214 181.013071895424 214 171.53594771242 214 C 162.058823529412 214 157.320261437908 214 147.8431372549 214 C 138.366013071896 214 133.627450980394 214 124.15032679739 214 C 114.67320261438199 214 109.934640522878 214 100.45751633987 214 C 90.98039215686319 214 86.24183006535979 214 76.764705882353 214 C 67.2875816993466 214 62.5490196078434 214 53.071895424837 214 C 43.5947712418302 214 38.8562091503268 214 29.37908496732 214 C 19.901960784313562 214 5.6862745098039 214 5.6862745098039 214"
                class="highcharts-area" data-z-index="0"></path>
            <path fill="none"
                d="M 5.6862745098039 178.31707592128376 C 5.6862745098039 178.31707592128376 19.901960784313562 174.3545172734752 29.37908496732 174.3545172734752 C 38.8562091503268 174.3545172734752 43.5947712418302 187.96335132954044 53.071895424837 187.96335132954044 C 62.5490196078434 187.96335132954044 67.2875816993466 177.15073151602877 76.764705882353 162.6587323096312 C 86.24183006535979 148.16673310323304 90.98039215686319 115.50335529755114 100.45751633987 115.50335529755114 C 109.934640522878 115.50335529755114 114.67320261438199 127.60726583425456 124.15032679739 136.1141626298818 C 133.627450980394 144.62105942550548 138.366013071896 152.7003701010607 147.8431372549 158.03783927567846 C 157.320261437908 163.37530845029622 162.058823529412 158.03783927567846 171.53594771242 163.37530845029622 C 181.013071895424 168.71277762491397 185.751633986926 180.72744847539485 195.22875816993 191.22734138431375 C 204.70588235293798 201.72723429323707 209.44444444444198 215.87477299490175 218.92156862745 215.87477299490175 C 228.398692810458 215.87477299490175 233.13725490196202 194.59527453068475 242.61437908497 187.22369702641737 C 252.091503267974 179.8521195221531 256.83006535947595 179.0168854735726 266.30718954248 179.0168854735726 C 275.784313725488 179.0168854735726 280.52287581699204 190.10894961477726 290 190.10894961477726 C 299.47712418300796 190.10894961477726 304.215686274512 133.7621725714143 313.69281045752 133.7621725714143 C 323.16993464052405 133.7621725714143 327.90849673202604 145.37164927037142 337.38562091503 154.13135673088965 C 346.86274509803803 162.8910641914116 351.601307189542 164.31808179935845 361.07843137255 177.5607098740148 C 370.55555555555804 190.80333794867116 375.294117647062 220.34449710417144 384.77124183007 220.34449710417144 C 394.24836601307396 220.34449710417144 398.98692810457595 210.91151766220906 408.46405228758 210.91151766220906 C 417.941176470588 210.91151766220906 422.679738562092 213.62100623109137 432.1568627451 213.62100623109137 C 441.63398692810404 213.62100623109137 446.37254901960597 197.66673172735312 455.84967320261 197.66673172735312 C 465.326797385618 197.66673172735312 470.065359477122 213.93708133756624 479.54248366013 213.93708133756624 C 489.019607843138 213.93708133756624 493.75816993464207 175.05697766886155 503.23529411765 161.26012302921694 C 512.712418300654 147.46326838957813 517.450980392156 148.80472005733037 526.92810457516 144.95280813935773 C 536.405228758168 141.10089622138509 541.1437908496721 144.95280813935773 550.62091503268 141.10089622138509 C 560.098039215688 137.24898430341244 574.3137254902 118.99505422606359 574.3137254902 118.99505422606359"
                class="highcharts-graph" data-z-index="1" stroke="#3DA5D9" stroke-width="2" stroke-linejoin="round"
                stroke-linecap="round"></path>
        </g>
        <g data-z-index="0.1" opacity="1" transform="translate(10,10) scale(1 1)">
            <path fill="rgb(115,191,184)" fill-opacity="0.5"
                d="M 5.6862745098039 150.7723309622726 C 5.6862745098039 150.7723309622726 19.901960784313562 154.74026145733924 29.37908496732 163.54159426834028 C 38.8562091503268 172.34292707934165 43.5947712418302 182.11872755144918 53.071895424837 194.7789950172787 C 62.5490196078434 207.43926248310768 67.2875816993466 216.8400639221793 76.764705882353 226.84293159748657 C 86.24183006535979 236.84579927279424 90.98039215686319 243.1163901818436 100.45751633987 244.79333339381617 C 109.934640522878 246.47027660578874 114.67320261438199 244.79333339381617 124.15032679739 246.47027660578874 C 133.627450980394 248.1472198177613 138.366013071896 256.471528189727 147.8431372549 256.471528189727 C 157.320261437908 256.471528189727 162.058823529412 209.87628879937694 171.53594771242 209.87628879937694 C 181.013071895424 209.87628879937694 185.751633986926 216.34765062459977 195.22875816993 221.01538341069147 C 204.70588235293798 225.68311619678516 209.44444444444198 233.2149527298404 218.92156862745 233.2149527298404 C 228.398692810458 233.2149527298404 233.13725490196202 227.6117314985175 242.61437908497 227.6117314985175 C 252.091503267974 227.6117314985175 256.83006535947595 232.0991650034915 266.30718954248 236.7649791374047 C 275.784313725488 241.43079327131989 280.52287581699204 250.94080216808848 290 250.94080216808848 C 299.47712418300796 250.94080216808848 304.215686274512 243.96574237191 313.69281045752 235.17724042365012 C 323.16993464052405 226.38873847539392 327.90849673202604 206.9982924267982 337.38562091503 206.9982924267982 C 346.86274509803803 206.9982924267982 351.601307189542 234.39201366249895 361.07843137255 235.64386290223194 C 370.55555555555804 236.89571214196494 375.294117647062 235.64386290223194 384.77124183007 236.89571214196494 C 394.24836601307396 238.14756138169793 398.98692810457595 242.53360912117085 408.46405228758 245.98497220707767 C 417.941176470588 249.43633529298597 422.679738562092 247.2478034927843 432.1568627451 254.1525275715028 C 441.63398692810404 261.05725165021835 446.37254901960597 272.4405322790258 455.84967320261 280.50859260066284 C 465.326797385618 288.5766529223033 470.065359477122 290.6283067558723 479.54248366013 294.49282917969674 C 489.019607843138 298.3573516035212 493.75816993464207 294.49282917969674 503.23529411765 299.83120471978515 C 512.712418300654 305.16958025987356 517.450980392156 314.2299439717468 526.92810457516 325.15453287104054 C 536.405228758168 336.07912177033893 541.1437908496721 354.45414921626553 550.62091503268 354.45414921626553 C 560.098039215688 354.45414921626553 574.3137254902 329.4448671092777 574.3137254902 329.4448671092777 L 574.3137254902 214 C 574.3137254902 214 560.098039215688 214 550.62091503268 214 C 541.1437908496721 214 536.405228758168 214 526.92810457516 214 C 517.450980392156 214 512.712418300654 214 503.23529411765 214 C 493.75816993464207 214 489.019607843138 214 479.54248366013 214 C 470.065359477122 214 465.326797385618 214 455.84967320261 214 C 446.37254901960597 214 441.63398692810404 214 432.1568627451 214 C 422.679738562092 214 417.941176470588 214 408.46405228758 214 C 398.98692810457595 214 394.24836601307396 214 384.77124183007 214 C 375.294117647062 214 370.55555555555804 214 361.07843137255 214 C 351.601307189542 214 346.86274509803803 214 337.38562091503 214 C 327.90849673202604 214 323.16993464052405 214 313.69281045752 214 C 304.215686274512 214 299.47712418300796 214 290 214 C 280.52287581699204 214 275.784313725488 214 266.30718954248 214 C 256.83006535947595 214 252.091503267974 214 242.61437908497 214 C 233.13725490196202 214 228.398692810458 214 218.92156862745 214 C 209.44444444444198 214 204.70588235293798 214 195.22875816993 214 C 185.751633986926 214 181.013071895424 214 171.53594771242 214 C 162.058823529412 214 157.320261437908 214 147.8431372549 214 C 138.366013071896 214 133.627450980394 214 124.15032679739 214 C 114.67320261438199 214 109.934640522878 214 100.45751633987 214 C 90.98039215686319 214 86.24183006535979 214 76.764705882353 214 C 67.2875816993466 214 62.5490196078434 214 53.071895424837 214 C 43.5947712418302 214 38.8562091503268 214 29.37908496732 214 C 19.901960784313562 214 5.6862745098039 214 5.6862745098039 214"
                class="highcharts-area" data-z-index="0"></path>
            <path fill="none"
                d="M 5.6862745098039 150.7723309622726 C 5.6862745098039 150.7723309622726 19.901960784313562 154.74026145733924 29.37908496732 163.54159426834028 C 38.8562091503268 172.34292707934165 43.5947712418302 182.11872755144918 53.071895424837 194.7789950172787 C 62.5490196078434 207.43926248310768 67.2875816993466 216.8400639221793 76.764705882353 226.84293159748657 C 86.24183006535979 236.84579927279424 90.98039215686319 243.1163901818436 100.45751633987 244.79333339381617 C 109.934640522878 246.47027660578874 114.67320261438199 244.79333339381617 124.15032679739 246.47027660578874 C 133.627450980394 248.1472198177613 138.366013071896 256.471528189727 147.8431372549 256.471528189727 C 157.320261437908 256.471528189727 162.058823529412 209.87628879937694 171.53594771242 209.87628879937694 C 181.013071895424 209.87628879937694 185.751633986926 216.34765062459977 195.22875816993 221.01538341069147 C 204.70588235293798 225.68311619678516 209.44444444444198 233.2149527298404 218.92156862745 233.2149527298404 C 228.398692810458 233.2149527298404 233.13725490196202 227.6117314985175 242.61437908497 227.6117314985175 C 252.091503267974 227.6117314985175 256.83006535947595 232.0991650034915 266.30718954248 236.7649791374047 C 275.784313725488 241.43079327131989 280.52287581699204 250.94080216808848 290 250.94080216808848 C 299.47712418300796 250.94080216808848 304.215686274512 243.96574237191 313.69281045752 235.17724042365012 C 323.16993464052405 226.38873847539392 327.90849673202604 206.9982924267982 337.38562091503 206.9982924267982 C 346.86274509803803 206.9982924267982 351.601307189542 234.39201366249895 361.07843137255 235.64386290223194 C 370.55555555555804 236.89571214196494 375.294117647062 235.64386290223194 384.77124183007 236.89571214196494 C 394.24836601307396 238.14756138169793 398.98692810457595 242.53360912117085 408.46405228758 245.98497220707767 C 417.941176470588 249.43633529298597 422.679738562092 247.2478034927843 432.1568627451 254.1525275715028 C 441.63398692810404 261.05725165021835 446.37254901960597 272.4405322790258 455.84967320261 280.50859260066284 C 465.326797385618 288.5766529223033 470.065359477122 290.6283067558723 479.54248366013 294.49282917969674 C 489.019607843138 298.3573516035212 493.75816993464207 294.49282917969674 503.23529411765 299.83120471978515 C 512.712418300654 305.16958025987356 517.450980392156 314.2299439717468 526.92810457516 325.15453287104054 C 536.405228758168 336.07912177033893 541.1437908496721 354.45414921626553 550.62091503268 354.45414921626553 C 560.098039215688 354.45414921626553 574.3137254902 329.4448671092777 574.3137254902 329.4448671092777"
                class="highcharts-graph" data-z-index="1" stroke="#73BFB8" stroke-width="2" stroke-linejoin="round"
                stroke-linecap="round"></path>
        </g>
        <g data-z-index="0.1" opacity="1" transform="translate(10,10) scale(1 1)"></g>
        <g data-z-index="0.1" opacity="1" transform="translate(10,10) scale(1 1)">
            <path fill="rgb(254,198,1)" fill-opacity="0.5"
                d="M 5.6862745098039 217.57619673869448 C 5.6862745098039 217.57619673869448 19.901960784313562 186.76575891817365 29.37908496732 186.76575891817365 C 38.8562091503268 186.76575891817365 43.5947712418302 186.76575891817365 53.071895424837 191.67116974385146 C 62.5490196078434 196.57658056952928 67.2875816993466 216.5919049115973 76.764705882353 226.01224182308792 C 86.24183006535979 235.43257873457893 90.98039215686319 238.77285430130556 100.45751633987 238.77285430130556 C 109.934640522878 238.77285430130556 114.67320261438199 190.25689135013636 124.15032679739 190.25689135013636 C 133.627450980394 190.25689135013636 138.366013071896 190.25689135013636 147.8431372549 191.52756097866393 C 157.320261437908 192.7982306071915 162.058823529412 200.20413227956294 171.53594771242 200.20413227956294 C 181.013071895424 200.20413227956294 185.751633986926 129.92761443913253 195.22875816993 129.92761443913253 C 204.70588235293798 129.92761443913253 209.44444444444198 146.40498423555658 218.92156862745 155.52629471765354 C 228.398692810458 164.6476051997505 233.13725490196202 166.29102759296694 242.61437908497 175.53416684961732 C 252.091503267974 184.7773061062638 256.83006535947595 195.03465161890122 266.30718954248 201.7419910008958 C 275.784313725488 208.4493303828932 280.52287581699204 209.07086375959733 290 209.07086375959733 C 299.47712418300796 209.07086375959733 304.215686274512 207.21458841209906 313.69281045752 206.03940336695908 C 323.16993464052405 204.86421832181958 327.90849673202604 203.19493853389872 337.38562091503 203.19493853389872 C 346.86274509803803 203.19493853389872 351.601307189542 205.4538366168884 361.07843137255 205.4538366168884 C 370.55555555555804 205.4538366168884 375.294117647062 140.50040106720513 384.77124183007 131.4854712165303 C 394.24836601307396 122.47054136585547 398.98692810457595 122.47054136585547 408.46405228758 122.47054136585547 C 417.941176470588 122.47054136585547 422.679738562092 122.99234072924463 432.1568627451 130.72376346981196 C 441.63398692810404 138.455186210376 446.37254901960597 161.12765506868388 455.84967320261 161.12765506868388 C 465.326797385618 161.12765506868388 470.065359477122 141.15578587769204 479.54248366013 123.16169967660346 C 489.019607843138 105.16761347551498 493.75816993464207 71.15722406324124 503.23529411765 71.15722406324124 C 512.712418300654 71.15722406324124 517.450980392156 76.53694609000615 526.92810457516 76.53694609000615 C 536.405228758168 76.53694609000615 541.1437908496721 70.95022104857748 550.62091503268 70.95022104857748 C 560.098039215688 70.95022104857748 574.3137254902 75.38169157148451 574.3137254902 75.38169157148451 L 574.3137254902 214 C 574.3137254902 214 560.098039215688 214 550.62091503268 214 C 541.1437908496721 214 536.405228758168 214 526.92810457516 214 C 517.450980392156 214 512.712418300654 214 503.23529411765 214 C 493.75816993464207 214 489.019607843138 214 479.54248366013 214 C 470.065359477122 214 465.326797385618 214 455.84967320261 214 C 446.37254901960597 214 441.63398692810404 214 432.1568627451 214 C 422.679738562092 214 417.941176470588 214 408.46405228758 214 C 398.98692810457595 214 394.24836601307396 214 384.77124183007 214 C 375.294117647062 214 370.55555555555804 214 361.07843137255 214 C 351.601307189542 214 346.86274509803803 214 337.38562091503 214 C 327.90849673202604 214 323.16993464052405 214 313.69281045752 214 C 304.215686274512 214 299.47712418300796 214 290 214 C 280.52287581699204 214 275.784313725488 214 266.30718954248 214 C 256.83006535947595 214 252.091503267974 214 242.61437908497 214 C 233.13725490196202 214 228.398692810458 214 218.92156862745 214 C 209.44444444444198 214 204.70588235293798 214 195.22875816993 214 C 185.751633986926 214 181.013071895424 214 171.53594771242 214 C 162.058823529412 214 157.320261437908 214 147.8431372549 214 C 138.366013071896 214 133.627450980394 214 124.15032679739 214 C 114.67320261438199 214 109.934640522878 214 100.45751633987 214 C 90.98039215686319 214 86.24183006535979 214 76.764705882353 214 C 67.2875816993466 214 62.5490196078434 214 53.071895424837 214 C 43.5947712418302 214 38.8562091503268 214 29.37908496732 214 C 19.901960784313562 214 5.6862745098039 214 5.6862745098039 214"
                class="highcharts-area" data-z-index="0"></path>
            <path fill="none"
                d="M 5.6862745098039 217.57619673869448 C 5.6862745098039 217.57619673869448 19.901960784313562 186.76575891817365 29.37908496732 186.76575891817365 C 38.8562091503268 186.76575891817365 43.5947712418302 186.76575891817365 53.071895424837 191.67116974385146 C 62.5490196078434 196.57658056952928 67.2875816993466 216.5919049115973 76.764705882353 226.01224182308792 C 86.24183006535979 235.43257873457893 90.98039215686319 238.77285430130556 100.45751633987 238.77285430130556 C 109.934640522878 238.77285430130556 114.67320261438199 190.25689135013636 124.15032679739 190.25689135013636 C 133.627450980394 190.25689135013636 138.366013071896 190.25689135013636 147.8431372549 191.52756097866393 C 157.320261437908 192.7982306071915 162.058823529412 200.20413227956294 171.53594771242 200.20413227956294 C 181.013071895424 200.20413227956294 185.751633986926 129.92761443913253 195.22875816993 129.92761443913253 C 204.70588235293798 129.92761443913253 209.44444444444198 146.40498423555658 218.92156862745 155.52629471765354 C 228.398692810458 164.6476051997505 233.13725490196202 166.29102759296694 242.61437908497 175.53416684961732 C 252.091503267974 184.7773061062638 256.83006535947595 195.03465161890122 266.30718954248 201.7419910008958 C 275.784313725488 208.4493303828932 280.52287581699204 209.07086375959733 290 209.07086375959733 C 299.47712418300796 209.07086375959733 304.215686274512 207.21458841209906 313.69281045752 206.03940336695908 C 323.16993464052405 204.86421832181958 327.90849673202604 203.19493853389872 337.38562091503 203.19493853389872 C 346.86274509803803 203.19493853389872 351.601307189542 205.4538366168884 361.07843137255 205.4538366168884 C 370.55555555555804 205.4538366168884 375.294117647062 140.50040106720513 384.77124183007 131.4854712165303 C 394.24836601307396 122.47054136585547 398.98692810457595 122.47054136585547 408.46405228758 122.47054136585547 C 417.941176470588 122.47054136585547 422.679738562092 122.99234072924463 432.1568627451 130.72376346981196 C 441.63398692810404 138.455186210376 446.37254901960597 161.12765506868388 455.84967320261 161.12765506868388 C 465.326797385618 161.12765506868388 470.065359477122 141.15578587769204 479.54248366013 123.16169967660346 C 489.019607843138 105.16761347551498 493.75816993464207 71.15722406324124 503.23529411765 71.15722406324124 C 512.712418300654 71.15722406324124 517.450980392156 76.53694609000615 526.92810457516 76.53694609000615 C 536.405228758168 76.53694609000615 541.1437908496721 70.95022104857748 550.62091503268 70.95022104857748 C 560.098039215688 70.95022104857748 574.3137254902 75.38169157148451 574.3137254902 75.38169157148451"
                class="highcharts-graph" data-z-index="1" stroke="#FEC601" stroke-width="2" stroke-linejoin="round"
                stroke-linecap="round"></path>
        </g>
        <g data-z-index="0.1" opacity="1" transform="translate(10,10) scale(1 1)"></g>
    </g>
</svg>